<?xml version="1.0" encoding="UTF-8" standalone="no"?>
<svg width="100px" height="300px" viewBox="0 0 100 300" version="1.1" xmlns="http://www.w3.org/2000/svg" xmlns:xlink="http://www.w3.org/1999/xlink" xmlns:sketch="http://www.bohemiancoding.com/sketch/ns">
    <title>social-cv</title>
    <description>Created with Sketch (http://www.bohemiancoding.com/sketch)</description>
    <defs></defs>
    <g id="Page-1" stroke="none" stroke-width="1" fill="none" fill-rule="evenodd" sketch:type="MSPage">
        <path d="M0,0 L0,100 L100,100 L100,0 L0,0 L0,0 Z M66.2789486,30.2291667 L66.2789486,74.875 L50.6510191,64.1319444 L35.0300337,74.875 L35.0300337,30.2291667 L66.2789486,30.2291667 L66.2789486,30.2291667 Z" id="Resume" fill="#FFFFFF" sketch:type="MSShapeGroup"></path>
        <path d="M0,100 L0,200 L100,200 L100,100 L0,100 L0,100 Z M66.28125,130.229167 L66.28125,174.875 L50.65625,164.131944 L35.0347222,174.875 L35.0347222,130.229167 L66.28125,130.229167 L66.28125,130.229167 Z" id="CV" fill="#9A10BD" sketch:type="MSShapeGroup"></path>
        <path d="M0,200 L0,300 L100,300 L100,200 L0,200 L0,200 Z M66.2789486,230.229167 L66.2789486,274.875 L50.6510191,264.131944 L35.0300337,274.875 L35.0300337,230.229167 L66.2789486,230.229167 L66.2789486,230.229167 Z" id="Resume-copy" fill="#8DEE0E" sketch:type="MSShapeGroup"></path>
    </g>
</svg>