<?xml version="1.0" encoding="UTF-8" standalone="no"?>
<svg width="100px" height="300px" viewBox="0 0 100 300" version="1.1" xmlns="http://www.w3.org/2000/svg" xmlns:xlink="http://www.w3.org/1999/xlink" xmlns:sketch="http://www.bohemiancoding.com/sketch/ns">
    <title>social-facebook</title>
    <description>Created with Sketch (http://www.bohemiancoding.com/sketch)</description>
    <defs></defs>
    <g id="Page-1" stroke="none" stroke-width="1" fill="none" fill-rule="evenodd" sketch:type="MSPage">
        <path d="M0,300 L100,300 L100,200 L0,200 L0,300 L0,300 Z M35.3212441,239.2589 L41.4652751,239.2589 L41.4652751,230.81687 C41.4652751,229.270318 41.1532194,218.93921 54.4051871,218.93921 L63.7599251,218.93921 L63.7599251,229.6855 L56.8808294,229.6855 C55.5181859,229.6855 54.1416733,231.107497 54.1416733,232.162751 L54.1416733,239.220842 L63.746056,239.220842 C63.3611872,244.632045 62.570646,249.583088 62.570646,249.583088 L54.0965986,249.583088 L54.0965986,280.261565 L41.4652751,280.261565 L41.4652751,249.583088 L35.3212441,249.583088 L35.3212441,239.2589 L35.3212441,239.2589 Z" id="Facebook" fill="#8DEE0E" sketch:type="MSShapeGroup"></path>
        <path d="M0,100 L100,100 L100,0 L0,0 L0,100 L0,100 Z M35.3212441,39.2589005 L41.4652751,39.2589005 L41.4652751,30.8168702 C41.4652751,29.270318 41.1532194,18.9392105 54.4051871,18.9392105 L63.7599251,18.9392105 L63.7599251,29.6854998 L56.8808294,29.6854998 C55.5181859,29.6854998 54.1416733,31.1074975 54.1416733,32.1627513 L54.1416733,39.2208421 L63.746056,39.2208421 C63.3611872,44.6320451 62.570646,49.5830883 62.570646,49.5830883 L54.0965986,49.5830883 L54.0965986,80.2615645 L41.4652751,80.2615645 L41.4652751,49.5830883 L35.3212441,49.5830883 L35.3212441,39.2589005 L35.3212441,39.2589005 Z" id="Facebook" fill="#FFFFFF" sketch:type="MSShapeGroup"></path>
        <path d="M0,200 L100,200 L100,100 L0,100 L0,200 L0,200 Z M35.3212441,139.2589 L41.4652751,139.2589 L41.4652751,130.81687 C41.4652751,129.270318 41.1532194,118.93921 54.4051871,118.93921 L63.7599251,118.93921 L63.7599251,129.6855 L56.8808294,129.6855 C55.5181859,129.6855 54.1416733,131.107497 54.1416733,132.162751 L54.1416733,139.220842 L63.746056,139.220842 C63.3611872,144.632045 62.570646,149.583088 62.570646,149.583088 L54.0965986,149.583088 L54.0965986,180.261565 L41.4652751,180.261565 L41.4652751,149.583088 L35.3212441,149.583088 L35.3212441,139.2589 L35.3212441,139.2589 Z" id="Facebook-copy" fill="#9A10BD" sketch:type="MSShapeGroup"></path>
    </g>
</svg>