<?xml version="1.0" encoding="UTF-8" standalone="no"?>
<svg width="100px" height="300px" viewBox="0 0 100 300" version="1.1" xmlns="http://www.w3.org/2000/svg" xmlns:xlink="http://www.w3.org/1999/xlink" xmlns:sketch="http://www.bohemiancoding.com/sketch/ns">
    <title>social-love</title>
    <description>Created with Sketch (http://www.bohemiancoding.com/sketch)</description>
    <defs></defs>
    <g id="Page-1" stroke="none" stroke-width="1" fill="none" fill-rule="evenodd" sketch:type="MSPage">
        <path d="M0,100 L0,200 L100,200 L100,100 L0,100 L0,100 Z M72.1736111,155.232639 L50.5173611,176.826389 L28.8680556,155.232639 C28.8680556,155.232639 21.6527778,148.486111 21.6527778,140.795139 C21.6527778,129.972222 28.6666667,126.295139 36.0173611,126.295139 C43.3715278,126.295139 50.5173611,135.118056 50.5173611,135.118056 C50.5173611,135.118056 57.6701389,126.295139 65.0208333,126.295139 C72.375,126.295139 79.3923611,129.972222 79.3923611,140.795139 C79.3923611,148.482639 72.1736111,155.232639 72.1736111,155.232639 L72.1736111,155.232639 Z" id="Shape" fill="#9A10BD" sketch:type="MSShapeGroup"></path>
        <path d="M0,0 L0,100 L100,100 L100,0 L0,0 L0,0 Z M72.1736111,55.2326389 L50.5173611,76.8263889 L28.8680556,55.2326389 C28.8680556,55.2326389 21.6527778,48.4861111 21.6527778,40.7951389 C21.6527778,29.9722222 28.6666667,26.2951389 36.0173611,26.2951389 C43.3715278,26.2951389 50.5173611,35.1180556 50.5173611,35.1180556 C50.5173611,35.1180556 57.6701389,26.2951389 65.0208333,26.2951389 C72.375,26.2951389 79.3923611,29.9722222 79.3923611,40.7951389 C79.3923611,48.4826389 72.1736111,55.2326389 72.1736111,55.2326389 L72.1736111,55.2326389 Z" id="Shape-copy" fill="#FFFFFF" sketch:type="MSShapeGroup"></path>
        <path d="M0,200 L0,300 L100,300 L100,200 L0,200 L0,200 Z M72.1736111,255.232639 L50.5173611,276.826389 L28.8680556,255.232639 C28.8680556,255.232639 21.6527778,248.486111 21.6527778,240.795139 C21.6527778,229.972222 28.6666667,226.295139 36.0173611,226.295139 C43.3715278,226.295139 50.5173611,235.118056 50.5173611,235.118056 C50.5173611,235.118056 57.6701389,226.295139 65.0208333,226.295139 C72.375,226.295139 79.3923611,229.972222 79.3923611,240.795139 C79.3923611,248.482639 72.1736111,255.232639 72.1736111,255.232639 L72.1736111,255.232639 Z" id="Shape-copy-2" fill="#8DEE0E" sketch:type="MSShapeGroup"></path>
    </g>
</svg>