<?xml version="1.0" encoding="UTF-8" standalone="no"?>
<svg width="100px" height="300px" viewBox="0 0 100 300" version="1.1" xmlns="http://www.w3.org/2000/svg" xmlns:xlink="http://www.w3.org/1999/xlink" xmlns:sketch="http://www.bohemiancoding.com/sketch/ns">
    <title>social-twitter</title>
    <description>Created with Sketch (http://www.bohemiancoding.com/sketch)</description>
    <defs></defs>
    <g id="Page-1" stroke="none" stroke-width="1" fill="none" fill-rule="evenodd" sketch:type="MSPage">
        <path d="M0,200 L0,300 L100,300 L100,200 L0,200 L0,200 Z M72.9305556,240.538194 C72.9513889,241 72.9583333,241.458333 72.9583333,241.923611 C72.9583333,256.090278 62.1770833,272.430556 42.4583333,272.430556 C36.3993056,272.430556 30.7708333,270.659722 26.0243056,267.611111 C26.8611111,267.708333 27.7118056,267.756944 28.5798611,267.756944 C33.6006944,267.756944 38.2256944,266.048611 41.8958333,263.170139 C37.2048611,263.090278 33.2430556,259.986111 31.8784722,255.725694 C32.53125,255.854167 33.2083333,255.923611 33.8993056,255.923611 C34.8715278,255.923611 35.8194444,255.788194 36.7222222,255.545139 C31.8159722,254.559028 28.1145833,250.225694 28.1145833,245.034722 L28.1145833,244.899306 C29.5625,245.694444 31.21875,246.184028 32.9756944,246.239583 C30.09375,244.309028 28.2013889,241.034722 28.2013889,237.315972 C28.2013889,235.350694 28.7256944,233.510417 29.65625,231.920139 C34.9409722,238.409722 42.84375,242.677083 51.7534722,243.131944 C51.5694444,242.34375 51.4756944,241.520833 51.4756944,240.684028 C51.4756944,234.760417 56.2777778,229.961806 62.1979167,229.961806 C65.28125,229.961806 68.0659722,231.267361 70.0208333,233.350694 C72.46875,232.868056 74.7569444,231.975694 76.8333333,230.746528 C76.03125,233.25 74.3333333,235.350694 72.1180556,236.677083 C74.2881944,236.427083 76.3576389,235.84375 78.2743056,234.993056 C76.8368056,237.138889 75.0277778,239.024306 72.9305556,240.538194 L72.9305556,240.538194 Z" id="Twitter" fill="#8DEE0E" sketch:type="MSShapeGroup"></path>
        <path d="M0,0 L0,100 L100,100 L100,0 L0,0 L0,0 Z M72.9305556,40.5381944 C72.9513889,41 72.9583333,41.4583333 72.9583333,41.9236111 C72.9583333,56.0902778 62.1770833,72.4305556 42.4583333,72.4305556 C36.3993056,72.4305556 30.7708333,70.6597222 26.0243056,67.6111111 C26.8611111,67.7083333 27.7118056,67.7569444 28.5798611,67.7569444 C33.6006944,67.7569444 38.2256944,66.0486111 41.8958333,63.1701389 C37.2048611,63.0902778 33.2430556,59.9861111 31.8784722,55.7256944 C32.53125,55.8541667 33.2083333,55.9236111 33.8993056,55.9236111 C34.8715278,55.9236111 35.8194444,55.7881944 36.7222222,55.5451389 C31.8159722,54.5590278 28.1145833,50.2256944 28.1145833,45.0347222 L28.1145833,44.8993056 C29.5625,45.6944444 31.21875,46.1840278 32.9756944,46.2395833 C30.09375,44.3090278 28.2013889,41.0347222 28.2013889,37.3159722 C28.2013889,35.3506944 28.7256944,33.5104167 29.65625,31.9201389 C34.9409722,38.4097222 42.84375,42.6770833 51.7534722,43.1319444 C51.5694444,42.34375 51.4756944,41.5208333 51.4756944,40.6840278 C51.4756944,34.7604167 56.2777778,29.9618056 62.1979167,29.9618056 C65.28125,29.9618056 68.0659722,31.2673611 70.0208333,33.3506944 C72.46875,32.8680556 74.7569444,31.9756944 76.8333333,30.7465278 C76.03125,33.25 74.3333333,35.3506944 72.1180556,36.6770833 C74.2881944,36.4270833 76.3576389,35.84375 78.2743056,34.9930556 C76.8368056,37.1388889 75.0277778,39.0243056 72.9305556,40.5381944 L72.9305556,40.5381944 Z" id="Twitter" fill="#FFFFFF" sketch:type="MSShapeGroup"></path>
        <path d="M0,100 L0,200 L100,200 L100,100 L0,100 L0,100 Z M72.9305556,140.538194 C72.9513889,141 72.9583333,141.458333 72.9583333,141.923611 C72.9583333,156.090278 62.1770833,172.430556 42.4583333,172.430556 C36.3993056,172.430556 30.7708333,170.659722 26.0243056,167.611111 C26.8611111,167.708333 27.7118056,167.756944 28.5798611,167.756944 C33.6006944,167.756944 38.2256944,166.048611 41.8958333,163.170139 C37.2048611,163.090278 33.2430556,159.986111 31.8784722,155.725694 C32.53125,155.854167 33.2083333,155.923611 33.8993056,155.923611 C34.8715278,155.923611 35.8194444,155.788194 36.7222222,155.545139 C31.8159722,154.559028 28.1145833,150.225694 28.1145833,145.034722 L28.1145833,144.899306 C29.5625,145.694444 31.21875,146.184028 32.9756944,146.239583 C30.09375,144.309028 28.2013889,141.034722 28.2013889,137.315972 C28.2013889,135.350694 28.7256944,133.510417 29.65625,131.920139 C34.9409722,138.409722 42.84375,142.677083 51.7534722,143.131944 C51.5694444,142.34375 51.4756944,141.520833 51.4756944,140.684028 C51.4756944,134.760417 56.2777778,129.961806 62.1979167,129.961806 C65.28125,129.961806 68.0659722,131.267361 70.0208333,133.350694 C72.46875,132.868056 74.7569444,131.975694 76.8333333,130.746528 C76.03125,133.25 74.3333333,135.350694 72.1180556,136.677083 C74.2881944,136.427083 76.3576389,135.84375 78.2743056,134.993056 C76.8368056,137.138889 75.0277778,139.024306 72.9305556,140.538194 L72.9305556,140.538194 Z" id="Twitter-copy" fill="#9A10BD" sketch:type="MSShapeGroup"></path>
    </g>
</svg>