<?xml version="1.0" encoding="UTF-8" standalone="no"?>
<svg width="100px" height="300px" viewBox="0 0 100 300" version="1.1" xmlns="http://www.w3.org/2000/svg" xmlns:xlink="http://www.w3.org/1999/xlink" xmlns:sketch="http://www.bohemiancoding.com/sketch/ns">
    <title>social-mail</title>
    <description>Created with Sketch (http://www.bohemiancoding.com/sketch)</description>
    <defs></defs>
    <g id="Page-1" stroke="none" stroke-width="1" fill="none" fill-rule="evenodd" sketch:type="MSPage">
        <path d="M0,200 L0,300 L100,300 L100,200 L0,200 L0,200 Z M39.2916667,247.496528 L22.5833333,264.204861 L22.5833333,234.243056 L39.2916667,247.496528 L39.2916667,247.496528 Z M25.7013889,231.732639 L73.1215278,231.732639 L49.4131944,250.541667 L25.7013889,231.732639 L25.7013889,231.732639 Z M42.3333333,249.913194 L49.2569444,255.402778 L49.3819444,255.555556 L49.4166667,255.534722 L49.4305556,255.541667 L49.4895833,255.46875 L56.8506944,249.635417 L74.65625,267.440972 L24.8020833,267.440972 L42.3333333,249.913194 L42.3333333,249.913194 Z M59.8888889,247.215278 L77.28125,233.423611 L77.28125,264.607639 L59.8888889,247.215278 L59.8888889,247.215278 Z" id="Mail" fill="#8DEE0E" sketch:type="MSShapeGroup"></path>
        <path d="M0,0 L0,100 L100,100 L100,0 L0,0 L0,0 Z M39.2916667,47.4965278 L22.5833333,64.2048611 L22.5833333,34.2430556 L39.2916667,47.4965278 L39.2916667,47.4965278 Z M25.7013889,31.7326389 L73.1215278,31.7326389 L49.4131944,50.5416667 L25.7013889,31.7326389 L25.7013889,31.7326389 Z M42.3333333,49.9131944 L49.2569444,55.4027778 L49.3819444,55.5555556 L49.4166667,55.5347222 L49.4305556,55.5416667 L49.4895833,55.46875 L56.8506944,49.6354167 L74.65625,67.4409722 L24.8020833,67.4409722 L42.3333333,49.9131944 L42.3333333,49.9131944 Z M59.8888889,47.2152778 L77.28125,33.4236111 L77.28125,64.6076389 L59.8888889,47.2152778 L59.8888889,47.2152778 Z" id="Mail" fill="#FFFFFF" sketch:type="MSShapeGroup"></path>
        <path d="M0,100 L0,200 L100,200 L100,100 L0,100 L0,100 Z M39.2916667,147.496528 L22.5833333,164.204861 L22.5833333,134.243056 L39.2916667,147.496528 L39.2916667,147.496528 Z M25.7013889,131.732639 L73.1215278,131.732639 L49.4131944,150.541667 L25.7013889,131.732639 L25.7013889,131.732639 Z M42.3333333,149.913194 L49.2569444,155.402778 L49.3819444,155.555556 L49.4166667,155.534722 L49.4305556,155.541667 L49.4895833,155.46875 L56.8506944,149.635417 L74.65625,167.440972 L24.8020833,167.440972 L42.3333333,149.913194 L42.3333333,149.913194 Z M59.8888889,147.215278 L77.28125,133.423611 L77.28125,164.607639 L59.8888889,147.215278 L59.8888889,147.215278 Z" id="Mail-copy" fill="#9A10BD" sketch:type="MSShapeGroup"></path>
    </g>
</svg>