<?xml version="1.0" encoding="UTF-8" standalone="no"?>
<svg width="100px" height="300px" viewBox="0 0 100 300" version="1.1" xmlns="http://www.w3.org/2000/svg" xmlns:xlink="http://www.w3.org/1999/xlink" xmlns:sketch="http://www.bohemiancoding.com/sketch/ns">
    <title>social-linkedin</title>
    <description>Created with Sketch (http://www.bohemiancoding.com/sketch)</description>
    <defs></defs>
    <g id="Page-1" stroke="none" stroke-width="1" fill="none" fill-rule="evenodd" sketch:type="MSPage">
        <path d="M50.9392687,0.0659310153 C50.5121706,0.055520855 50.0920171,0 49.6649189,0 C49.2308761,0 48.8176673,0.055520855 48.3870968,0.0659310153 L0,0.0659310153 L0,100 L100,100 L100,0.0659310153 L50.9392687,0.0659310153 Z M78.1939394,74.4765128 C78.1939394,76.7327179 76.3238095,78.5669744 74.0277056,78.5669744 L25.9757576,78.5669744 C23.6658009,78.5669744 21.8060606,76.7362051 21.8060606,74.4765128 L21.8060606,25.5269744 C21.8060606,23.2672821 23.6658009,21.4330256 25.9757576,21.4330256 L74.0277056,21.4330256 C76.3238095,21.4330256 78.1939394,23.2637949 78.1939394,25.5269744 L78.1939394,74.4765128 Z M60.0138528,43.0779487 C55.4805195,43.0779487 53.4614719,45.5922051 52.3359307,47.3567179 L52.3359307,47.4299487 L52.2839827,47.4299487 C52.2978355,47.4055385 52.3186147,47.377641 52.3359307,47.3567179 L52.3359307,43.6847179 L43.8233766,43.6847179 C43.9307359,46.1048205 43.8233766,69.4828718 43.8233766,69.4828718 L52.3359307,69.4828718 L52.3359307,55.0738462 C52.3359307,54.3031795 52.3878788,53.5394872 52.6233766,52.9780513 C53.2363636,51.4402051 54.638961,49.8465641 56.9939394,49.8465641 C60.0727273,49.8465641 61.3021645,52.2108718 61.3021645,55.6771282 L61.3021645,69.4828718 L69.821645,69.4828718 L69.821645,54.6937436 C69.821645,46.7638974 65.617316,43.0779487 60.0138528,43.0779487 Z M30.5905032,43.6777845 L30.5905032,69.482913 L39.1134469,69.482913 L39.1134469,43.6777845 L30.5905032,43.6777845 Z M34.9090909,31.2424615 C31.9930736,31.2424615 30.0848485,33.174359 30.0848485,35.6990769 C30.0848485,38.1784615 31.9411255,40.1556923 34.791342,40.1556923 L34.8536797,40.1556923 C37.821645,40.1556923 39.6709957,38.1784615 39.6709957,35.6990769 C39.6121212,33.174359 37.8251082,31.2424615 34.9090909,31.2424615 Z" id="LinkedIn" fill="#FFFFFF" sketch:type="MSShapeGroup"></path>
        <path d="M50.9392687,200.065931 C50.5121706,200.055521 50.0920171,200 49.6649189,200 C49.2308761,200 48.8176673,200.055521 48.3870968,200.065931 L0,200.065931 L0,300 L100,300 L100,200.065931 L50.9392687,200.065931 Z M78.1939394,274.476513 C78.1939394,276.732718 76.3238095,278.566974 74.0277056,278.566974 L25.9757576,278.566974 C23.6658009,278.566974 21.8060606,276.736205 21.8060606,274.476513 L21.8060606,225.526974 C21.8060606,223.267282 23.6658009,221.433026 25.9757576,221.433026 L74.0277056,221.433026 C76.3238095,221.433026 78.1939394,223.263795 78.1939394,225.526974 L78.1939394,274.476513 Z M60.0138528,243.077949 C55.4805195,243.077949 53.4614719,245.592205 52.3359307,247.356718 L52.3359307,247.429949 L52.2839827,247.429949 C52.2978355,247.405538 52.3186147,247.377641 52.3359307,247.356718 L52.3359307,243.684718 L43.8233766,243.684718 C43.9307359,246.104821 43.8233766,269.482872 43.8233766,269.482872 L52.3359307,269.482872 L52.3359307,255.073846 C52.3359307,254.303179 52.3878788,253.539487 52.6233766,252.978051 C53.2363636,251.440205 54.638961,249.846564 56.9939394,249.846564 C60.0727273,249.846564 61.3021645,252.210872 61.3021645,255.677128 L61.3021645,269.482872 L69.821645,269.482872 L69.821645,254.693744 C69.821645,246.763897 65.617316,243.077949 60.0138528,243.077949 Z M30.5905032,243.677784 L30.5905032,269.482913 L39.1134469,269.482913 L39.1134469,243.677784 L30.5905032,243.677784 Z M34.9090909,231.242462 C31.9930736,231.242462 30.0848485,233.174359 30.0848485,235.699077 C30.0848485,238.178462 31.9411255,240.155692 34.791342,240.155692 L34.8536797,240.155692 C37.821645,240.155692 39.6709957,238.178462 39.6709957,235.699077 C39.6121212,233.174359 37.8251082,231.242462 34.9090909,231.242462 Z" id="LinkedIn-copy" fill="#8DEE0E" sketch:type="MSShapeGroup"></path>
        <path d="M50.9392687,100.065931 C50.5121706,100.055521 50.0920171,100 49.6649189,100 C49.2308761,100 48.8176673,100.055521 48.3870968,100.065931 L0,100.065931 L0,200 L100,200 L100,100.065931 L50.9392687,100.065931 Z M78.1939394,174.476513 C78.1939394,176.732718 76.3238095,178.566974 74.0277056,178.566974 L25.9757576,178.566974 C23.6658009,178.566974 21.8060606,176.736205 21.8060606,174.476513 L21.8060606,125.526974 C21.8060606,123.267282 23.6658009,121.433026 25.9757576,121.433026 L74.0277056,121.433026 C76.3238095,121.433026 78.1939394,123.263795 78.1939394,125.526974 L78.1939394,174.476513 Z M60.0138528,143.077949 C55.4805195,143.077949 53.4614719,145.592205 52.3359307,147.356718 L52.3359307,147.429949 L52.2839827,147.429949 C52.2978355,147.405538 52.3186147,147.377641 52.3359307,147.356718 L52.3359307,143.684718 L43.8233766,143.684718 C43.9307359,146.104821 43.8233766,169.482872 43.8233766,169.482872 L52.3359307,169.482872 L52.3359307,155.073846 C52.3359307,154.303179 52.3878788,153.539487 52.6233766,152.978051 C53.2363636,151.440205 54.638961,149.846564 56.9939394,149.846564 C60.0727273,149.846564 61.3021645,152.210872 61.3021645,155.677128 L61.3021645,169.482872 L69.821645,169.482872 L69.821645,154.693744 C69.821645,146.763897 65.617316,143.077949 60.0138528,143.077949 Z M30.5905032,143.677784 L30.5905032,169.482913 L39.1134469,169.482913 L39.1134469,143.677784 L30.5905032,143.677784 Z M34.9090909,131.242462 C31.9930736,131.242462 30.0848485,133.174359 30.0848485,135.699077 C30.0848485,138.178462 31.9411255,140.155692 34.791342,140.155692 L34.8536797,140.155692 C37.821645,140.155692 39.6709957,138.178462 39.6709957,135.699077 C39.6121212,133.174359 37.8251082,131.242462 34.9090909,131.242462 Z" id="LinkedIn-copy-2" fill="#9A10BD" sketch:type="MSShapeGroup"></path>
    </g>
</svg>